<svg width="120" height="121" viewBox="0 0 120 121" fill="none" xmlns="http://www.w3.org/2000/svg">
<path d="M26.1078 48.4328C23.1297 52.0825 27.0742 67.8278 27.2872 72.3227C27.5099 76.9979 25.423 90.676 28.4665 94.7352C32.0441 99.5053 41.817 95.9146 46.7509 95.9146C58.1718 95.9146 85.7049 103.558 93.938 95.3249C94.2623 95.0005 91.2843 70.2686 90.9861 67.6018C90.1409 59.9748 91.0747 50.8407 89.2171 43.4201C89.1122 42.9942 89.0465 42.3783 88.6272 42.2407C86.4354 41.5101 76.0303 44.0098 72.7017 44.0098C59.8754 44.0098 32.7584 40.2816 26.1078 48.4328Z" stroke="#AB77FF" stroke-width="3" stroke-miterlimit="10" stroke-linecap="round" stroke-linejoin="round"/>
<path d="M47.9303 43.4203C44.89 41.9002 43.5566 28.6087 46.1612 25.1359C48.2743 22.3184 53.5131 20.4182 56.7794 20.4182C72.207 20.4182 71.5223 31.0822 71.5223 44.01" stroke="#AB77FF" stroke-width="3" stroke-miterlimit="10" stroke-linecap="round" stroke-linejoin="round"/>
</svg>
