<svg width="120" height="121" viewBox="0 0 120 121" fill="none" xmlns="http://www.w3.org/2000/svg">
<path d="M24.9998 60.1956C33.8099 55.7921 39.2653 46.6086 46.1398 39.5598C50.45 35.1438 55.98 32.4799 59.73 27.4788C60.7446 26.1282 62.0796 20.8689 64.2611 20.4332C66.4489 19.9944 71.8514 29.3461 73.3203 31.0017C77.1232 35.2808 81.8069 38.0256 85.4013 42.5785C90.0133 48.4198 92.9074 57.1552 99.9998 60.6998" stroke="#657DFF" stroke-width="3" stroke-miterlimit="10" stroke-linecap="round" stroke-linejoin="round"/>
<path d="M38.0889 66.2364C38.0889 76.4781 38.6086 86.7136 39.094 96.9397C39.1999 99.1244 38.3845 101.664 39.5982 103.484C40.0712 104.197 41.2694 103.12 42.1159 102.98C49.871 101.689 58.3918 101.975 66.2746 101.975C70.314 101.975 74.3097 101.16 78.3553 101.471C78.6883 101.496 84.6853 103.802 84.9 103.484C87.9747 98.8723 81.8782 73.1109 81.8782 64.7271" stroke="#657DFF" stroke-width="3" stroke-miterlimit="10" stroke-linecap="round" stroke-linejoin="round"/>
<path d="M54.6987 85.8671C54.6987 90.4013 55.2028 94.9231 55.2028 99.4573C55.2028 99.9895 54.7641 98.474 54.6987 97.9481C54.428 95.7821 54.6987 93.585 54.6987 91.4035C54.6987 89.8039 53.8056 84.1275 54.6987 82.3443C56.2485 79.2416 64.262 77.8132 66.7797 80.3308C69.4467 83.0009 67.7849 96.0715 67.7849 99.9615" stroke="#657DFF" stroke-width="3" stroke-miterlimit="10" stroke-linecap="round" stroke-linejoin="round"/>
</svg>
